<?xml version="1.0" encoding="UTF-8" standalone="no"?><!-- Generator: Gravit.io --><svg xmlns="http://www.w3.org/2000/svg" xmlns:xlink="http://www.w3.org/1999/xlink" style="isolation:isolate" viewBox="0 0 1024 768" width="1024pt" height="768pt"><defs><clipPath id="_clipPath_0UqzLeOoi9annV04TuogI0IO8MtCNqxG"><rect width="1024" height="768"/></clipPath></defs><g clip-path="url(#_clipPath_0UqzLeOoi9annV04TuogI0IO8MtCNqxG)"><clipPath id="_clipPath_7fLk5bL5JAdTbJ7THwADJgJ36Yf2Hsfs"><path d=" M 197.413 151.982 L 826.588 151.982 L 826.588 616.018 L 197.413 616.018 L 197.413 151.982 Z " fill="rgb(255,255,255)"/></clipPath><g clip-path="url(#_clipPath_7fLk5bL5JAdTbJ7THwADJgJ36Yf2Hsfs)"><path d=" M 826.588 373.643 L 826.588 394.357 C 826.391 395.481 826.142 396.584 826.013 397.702 C 824.941 406.712 824.247 415.78 822.766 424.723 C 817.929 453.789 807.474 480.805 791.939 505.785 C 768.346 543.712 736.452 572.633 696.372 592.384 C 673.239 603.837 648.297 611.197 622.652 614.138 C 616.956 614.796 611.265 615.386 605.568 616.013 L 384.534 616.013 C 383.42 615.806 382.312 615.474 381.189 615.407 C 358.901 614.004 337.457 608.924 317.018 599.981 C 272.52 580.51 239.342 548.953 217.624 505.516 C 208.027 486.357 201.816 465.682 199.266 444.406 C 198.64 439.233 198.029 434.065 197.413 428.897 L 197.413 408.799 C 197.625 407.686 197.951 406.573 198.018 405.454 C 199.173 386.144 203.135 367.393 210.11 349.372 C 228.882 300.882 261.604 264.918 308.106 241.641 C 332.232 229.56 357.948 223.211 384.845 221.802 C 398.013 221.119 411.171 221.854 424.262 223.61 C 425.448 223.77 427.157 223.242 427.981 222.398 C 446.804 203.17 468.237 187.552 492.405 175.715 C 515.848 164.234 540.517 156.834 566.487 153.872 C 572.598 153.173 578.724 152.598 584.844 151.966 L 603.689 151.966 C 604.921 152.158 606.159 152.376 607.391 152.521 C 616.728 153.608 626.116 154.292 635.365 155.84 C 664.219 160.682 691.079 171.039 715.936 186.424 C 754.049 210.016 783.094 241.951 802.938 282.157 C 814.414 305.3 821.782 330.262 824.713 355.928 C 825.386 361.836 825.961 367.745 826.588 373.643 Z  M 474.793 239.611 C 475.171 240.108 475.264 240.341 475.425 240.419 C 488.366 246.797 500.734 254.276 512.394 262.774 C 513.129 263.307 514.952 263.084 515.842 262.525 C 547.886 242.221 582.623 235.214 619.938 241.832 C 656.503 248.316 686.258 266.585 708.991 295.765 C 734.733 328.788 744.546 366.129 737.441 407.676 C 732.677 435.52 721.523 460.5 702.565 481.426 C 667.973 519.576 624.656 535.354 573.664 528.674 C 542.273 524.562 515.174 511.021 492.747 488.355 C 463.96 459.278 434.987 430.393 406.117 401.394 C 402.27 397.531 397.987 394.424 392.446 393.746 C 382.768 392.56 373.985 397.391 369.806 406.086 C 366.078 413.848 366.56 422.6 374.648 430.554 C 406.832 462.147 438.731 494.031 470.878 525.655 C 476.38 531.095 482.281 536.117 488.532 540.678 C 512.016 557.73 538.493 567.16 567.165 570.956 C 589.671 573.928 612 573.291 634.158 568.309 C 676.424 558.817 711.436 537.244 739.01 503.958 C 761.78 476.45 775.549 444.841 780.35 409.353 C 783.131 389.117 782.551 368.56 778.63 348.512 C 772.235 315.733 758.367 286.403 736.147 261.438 C 693.751 213.833 640.414 192.581 576.942 197.324 C 552.526 199.147 529.43 206.319 507.697 217.696 C 495.969 223.789 484.936 231.137 474.793 239.611 M 459.263 571.939 C 458.39 571.13 457.52 570.317 456.653 569.5 C 443.495 557.077 430.264 544.732 417.261 532.149 C 414.745 529.715 412.43 528.529 408.867 528.612 C 395.698 528.933 382.519 528.99 369.542 526.059 C 305.02 511.466 267.554 441.314 291.333 379.588 C 310.089 330.916 362.013 301.275 413.217 310.415 C 436.168 314.511 456.312 324.226 472.846 341.278 C 493.011 362.095 513.776 382.317 534.158 402.922 C 538.798 407.613 544.127 409.752 550.553 408.836 C 558.859 407.65 565.472 403.693 568.476 395.548 C 571.417 387.532 569.993 379.94 563.924 373.793 C 542.532 352.122 521.647 329.906 499.391 309.157 C 456.224 268.895 405.32 256.922 349.02 274.042 C 273.297 297.05 228.98 375.243 246.281 452.401 C 262.049 522.703 323.532 572.043 395.476 572.105 C 415.563 572.126 435.655 572.116 455.742 572.105 C 456.736 572.105 457.73 572.017 459.263 571.939 Z " fill="rgb(218,31,38)"/></g></g></svg>