<?xml version="1.0" encoding="UTF-8" standalone="no"?><!-- Generator: Gravit.io --><svg xmlns="http://www.w3.org/2000/svg" xmlns:xlink="http://www.w3.org/1999/xlink" style="isolation:isolate" viewBox="0 0 1024 768" width="1024pt" height="768pt"><defs><clipPath id="_clipPath_E6Lwm3pOM0JYps84lzaWn24M5WQ23Q3l"><rect width="1024" height="768"/></clipPath></defs><g clip-path="url(#_clipPath_E6Lwm3pOM0JYps84lzaWn24M5WQ23Q3l)"><g><g clip-path="url(#_clipPath_BMZlkF7l9756XM10oMmfBvA5Gg182xeS)"><text transform="matrix(1.322,0,0,1.322,402.46,137.032)" style="font-family:'Orbitron';font-weight:900;font-size:64px;font-style:normal;font-variant-ligatures:none;letter-spacing:21;fill:#ffffff;stroke:none;">CSS</text></g><defs><clipPath id="_clipPath_BMZlkF7l9756XM10oMmfBvA5Gg182xeS"><rect x="0" y="0" width="202.222" height="73" transform="matrix(1.322,0,0,1.322,402.46,51.489)"/></clipPath></defs><path d=" M 748.098 185.248 C 745.428 182.304 741.637 180.625 737.663 180.622 L 286.397 180.622 C 278.608 180.588 272.266 186.873 272.232 194.661 C 272.229 195.125 272.251 195.588 272.294 196.05 L 314.6 647.315 C 315.146 653.104 319.189 657.964 324.782 659.556 L 522.21 715.964 C 523.484 716.327 524.805 716.506 526.13 716.5 C 527.642 716.498 529.147 716.261 530.586 715.795 L 699.811 659.387 C 705.119 657.62 708.88 652.885 709.4 647.315 L 751.706 196.05 C 752.078 192.103 750.766 188.182 748.098 185.248 Z " fill="rgb(33,150,243)"/><g><path d=" M 526.132 603.685 C 524.825 603.677 523.524 603.487 522.268 603.121 L 423.553 574.917 C 418.708 573.538 414.966 569.678 413.738 564.791 L 399.636 508.383 C 397.576 500.872 401.996 493.113 409.506 491.053 C 417.017 488.993 424.776 493.413 426.836 500.924 C 426.894 501.134 426.946 501.344 426.993 501.557 L 439.121 550.067 L 526.13 574.943 L 611.87 550.434 L 637.253 321.67 L 385.109 321.67 C 377.321 321.67 371.006 315.356 371.006 307.567 C 371.006 299.779 377.321 293.465 385.109 293.465 L 653.048 293.465 C 660.837 293.417 667.188 299.693 667.235 307.481 C 667.238 308.029 667.21 308.575 667.149 309.118 L 638.946 562.955 C 638.306 568.64 634.295 573.375 628.792 574.942 L 530.077 603.146 C 528.796 603.513 527.466 603.694 526.132 603.685 Z " fill="rgb(250,250,250)"/><path d=" M 638.948 434.461 L 399.214 434.461 C 391.426 434.461 385.112 428.146 385.112 420.358 C 385.112 412.57 391.426 406.256 399.214 406.256 L 638.948 406.256 C 646.737 406.256 653.051 412.57 653.051 420.358 C 653.051 428.146 646.737 434.461 638.948 434.461 Z " fill="rgb(250,250,250)"/></g></g></g></svg>