<?xml version="1.0" encoding="UTF-8" standalone="no"?><!-- Generator: Gravit.io --><svg xmlns="http://www.w3.org/2000/svg" xmlns:xlink="http://www.w3.org/1999/xlink" style="isolation:isolate" viewBox="0 0 1024 768" width="1024pt" height="768pt"><defs><clipPath id="_clipPath_sRTRxtRmYRYBv9WuZ1hekjyUPDsmkvPy"><rect width="1024" height="768"/></clipPath></defs><g clip-path="url(#_clipPath_sRTRxtRmYRYBv9WuZ1hekjyUPDsmkvPy)"><g><g clip-path="url(#_clipPath_7VyxX1PltPBEp7hecZ03I0mkS5f281DZ)"><text transform="matrix(1.349,0,0,1.349,375.611,132.03)" style="font-family:'Orbitron';font-weight:900;font-size:64px;font-style:normal;font-variant-ligatures:none;letter-spacing:21;fill:#000000;stroke:none;">CSS</text></g><defs><clipPath id="_clipPath_7VyxX1PltPBEp7hecZ03I0mkS5f281DZ"><rect x="0" y="0" width="202.222" height="73" transform="matrix(1.349,0,0,1.349,375.611,44.75)"/></clipPath></defs><path d=" M 752.891 181.214 C 750.166 178.21 746.299 176.496 742.244 176.494 L 281.817 176.494 C 273.87 176.459 267.4 182.871 267.365 190.818 C 267.362 191.291 267.383 191.763 267.428 192.234 L 310.593 652.66 C 311.15 658.567 315.275 663.526 320.981 665.15 L 522.417 722.704 C 523.717 723.073 525.065 723.257 526.417 723.25 C 527.96 723.248 529.495 723.006 530.964 722.531 L 703.624 664.977 C 709.04 663.175 712.877 658.343 713.407 652.66 L 756.572 192.234 C 756.951 188.208 755.613 184.207 752.891 181.214 Z " fill="rgb(33,150,243)"/><g><path d=" M 526.419 608.145 C 525.085 608.137 523.758 607.943 522.476 607.569 L 421.758 578.793 C 416.814 577.386 412.997 573.447 411.743 568.462 L 397.355 510.908 C 395.253 503.245 399.762 495.328 407.426 493.226 C 415.089 491.125 423.005 495.634 425.107 503.297 C 425.166 503.512 425.219 503.726 425.268 503.943 L 437.641 553.439 L 526.417 578.82 L 613.897 553.812 L 639.796 320.404 L 382.533 320.404 C 374.586 320.404 368.144 313.962 368.144 306.016 C 368.144 298.069 374.586 291.627 382.533 291.627 L 655.912 291.627 C 663.858 291.578 670.338 297.982 670.387 305.928 C 670.389 306.486 670.361 307.044 670.299 307.598 L 641.523 566.588 C 640.87 572.388 636.777 577.22 631.163 578.818 L 530.444 607.595 C 529.137 607.97 527.78 608.154 526.419 608.145 Z " fill="rgb(250,250,250)"/><path d=" M 641.526 435.485 L 396.924 435.485 C 388.978 435.485 382.536 429.043 382.536 421.096 C 382.536 413.15 388.978 406.707 396.924 406.707 L 641.526 406.707 C 649.472 406.707 655.914 413.15 655.914 421.096 C 655.914 429.043 649.472 435.485 641.526 435.485 Z " fill="rgb(250,250,250)"/></g></g></g></svg>