<?xml version="1.0" encoding="UTF-8" standalone="no"?><!-- Generator: Gravit.io --><svg xmlns="http://www.w3.org/2000/svg" xmlns:xlink="http://www.w3.org/1999/xlink" style="isolation:isolate" viewBox="0 0 1024 768" width="1024pt" height="768pt"><defs><clipPath id="_clipPath_i2PTDfms2Y0Gys6fEFeEEap7thYlH9K5"><rect width="1024" height="768"/></clipPath></defs><g clip-path="url(#_clipPath_i2PTDfms2Y0Gys6fEFeEEap7thYlH9K5)"><g><path d=" M 779.5 384 C 779.5 531.736 659.736 651.5 512 651.5 C 364.264 651.5 244.5 531.736 244.5 384 C 244.5 236.264 364.264 116.5 512 116.5 C 648.359 116.5 760.884 218.532 777.404 350.415 C 778.605 359.947 779.304 369.631 779.456 379.447 C 779.49 380.965 779.5 382.483 779.5 384 Z " fill="rgb(0,107,192)"/><g><path d=" M 779.456 379.447 C 756.615 407.267 711.86 405.095 711.86 405.095 C 684.259 524.007 517.567 584.528 401.833 554.797 C 286.11 525.076 302.029 387.046 302.029 387.046 L 640.728 387.046 C 668.679 387.046 670.808 378.552 670.808 378.552 C 646.034 319.8 684.26 288.301 684.26 288.301 C 713.991 293.618 721.415 344.574 721.415 344.574 C 745.817 340.196 765.415 345.404 777.404 350.415 C 778.605 359.947 779.304 369.631 779.456 379.447 Z " fill="rgb(242,242,242)"/><rect x="338.125" y="333.251" width="47.429" height="43.176" transform="matrix(1,0,0,1,0,0)" fill="rgb(242,242,242)"/><rect x="397.728" y="333.251" width="47.429" height="43.176" transform="matrix(1,0,0,1,0,0)" fill="rgb(242,242,242)"/><rect x="576.517" y="333.251" width="47.429" height="43.176" transform="matrix(1,0,0,1,0,0)" fill="rgb(242,242,242)"/><rect x="516.924" y="333.251" width="47.429" height="43.176" transform="matrix(1,0,0,1,0,0)" fill="rgb(242,242,242)"/><rect x="516.924" y="222.834" width="47.429" height="43.176" transform="matrix(1,0,0,1,0,0)" fill="rgb(242,242,242)"/><rect x="457.32" y="333.251" width="47.429" height="43.176" transform="matrix(1,0,0,1,0,0)" fill="rgb(242,242,242)"/><rect x="397.728" y="278.038" width="47.429" height="43.176" transform="matrix(1,0,0,1,0,0)" fill="rgb(242,242,242)"/><rect x="516.924" y="278.038" width="47.429" height="43.176" transform="matrix(1,0,0,1,0,0)" fill="rgb(242,242,242)"/><rect x="457.32" y="278.038" width="47.429" height="43.176" transform="matrix(1,0,0,1,0,0)" fill="rgb(242,242,242)"/></g></g></g></svg>