<?xml version="1.0" encoding="UTF-8" standalone="no"?><!-- Generator: Gravit.io --><svg xmlns="http://www.w3.org/2000/svg" xmlns:xlink="http://www.w3.org/1999/xlink" style="isolation:isolate" viewBox="0 0 1024 768" width="1024pt" height="768pt"><defs><clipPath id="_clipPath_bHmq7RSZZFPGojIEVRcqIX3VefY8GurX"><rect width="1024" height="768"/></clipPath></defs><g clip-path="url(#_clipPath_bHmq7RSZZFPGojIEVRcqIX3VefY8GurX)"><g><path d=" M 794.404 357.855 L 538.138 101.602 C 523.383 86.841 499.448 86.841 484.68 101.602 L 431.471 154.824 L 498.969 222.322 C 514.657 217.021 532.645 220.579 545.145 233.086 C 557.723 245.669 561.249 263.81 555.813 279.556 L 620.877 344.614 C 636.623 339.184 654.777 342.698 667.347 355.288 C 684.913 372.854 684.913 401.317 667.347 418.896 C 649.769 436.468 621.305 436.468 603.72 418.896 C 590.51 405.673 587.24 386.255 593.941 369.979 L 533.258 309.303 L 533.258 468.975 C 537.538 471.095 541.581 473.919 545.145 477.483 C 562.711 495.049 562.711 523.512 545.145 541.098 C 527.579 558.657 499.097 558.657 481.544 541.098 C 463.978 523.506 463.978 495.043 481.544 477.483 C 485.887 473.146 490.914 469.863 496.28 467.665 L 496.28 306.505 C 490.914 304.308 485.9 301.056 481.544 296.687 C 468.238 283.388 465.038 263.855 471.86 247.515 L 405.32 180.962 L 229.596 356.667 C 214.834 371.442 214.834 395.376 229.596 410.138 L 485.875 666.398 C 500.63 681.159 524.558 681.159 539.333 666.398 L 794.404 411.326 C 809.166 396.564 809.166 372.617 794.404 357.855 Z " fill="rgb(240,81,51)"/></g></g></svg>