<?xml version="1.0" encoding="UTF-8" standalone="no"?><!-- Generator: Gravit.io --><svg xmlns="http://www.w3.org/2000/svg" xmlns:xlink="http://www.w3.org/1999/xlink" style="isolation:isolate" viewBox="0 0 1024 768" width="1024pt" height="768pt"><defs><clipPath id="_clipPath_DthSwJyyTAzwTUJPYDXtmmtM6wgIbwSG"><rect width="1024" height="768"/></clipPath></defs><g clip-path="url(#_clipPath_DthSwJyyTAzwTUJPYDXtmmtM6wgIbwSG)"><g><g><g><path d=" M 511.967 122.069 C 364.273 122.069 244.5 242.31 244.5 390.639 C 244.5 509.275 321.139 609.922 427.47 645.466 C 440.845 647.94 445.727 639.648 445.727 632.525 C 445.727 626.139 445.493 609.253 445.359 586.85 C 370.961 603.067 355.245 550.838 355.245 550.838 C 343.107 519.808 325.553 511.549 325.553 511.549 C 301.243 494.897 327.358 495.231 327.358 495.231 C 354.208 497.137 368.319 522.917 368.319 522.917 C 392.193 563.945 430.948 552.108 446.195 545.22 C 448.603 527.866 455.524 516.029 463.181 509.308 C 403.796 502.52 341.335 479.482 341.335 376.595 C 341.335 347.27 351.767 323.295 368.888 304.504 C 366.112 297.716 356.95 270.397 371.496 233.449 C 371.496 233.449 393.966 226.226 445.058 260.968 C 466.391 255.016 489.263 252.04 512.033 251.94 C 534.738 252.074 557.642 255.016 579.009 261.001 C 630.068 226.26 652.504 233.482 652.504 233.482 C 667.083 270.464 657.921 297.749 655.179 304.537 C 672.333 323.329 682.665 347.304 682.665 376.628 C 682.665 479.783 620.137 502.487 560.551 509.141 C 570.148 517.434 578.708 533.818 578.708 558.863 C 578.708 594.774 578.373 623.731 578.373 632.525 C 578.373 639.714 583.188 648.074 596.764 645.432 C 702.928 609.855 779.5 509.241 779.5 390.639 C 779.5 242.31 659.727 122.069 511.967 122.069 Z " fill="rgb(0,0,0)"/></g></g></g></g></svg>