<?xml version="1.0" encoding="UTF-8" standalone="no"?><!-- Generator: Gravit.io --><svg xmlns="http://www.w3.org/2000/svg" xmlns:xlink="http://www.w3.org/1999/xlink" style="isolation:isolate" viewBox="0 0 1024 768" width="1024pt" height="768pt"><defs><clipPath id="_clipPath_nfOe6c5bApSRGwsnJDZguNm3zSkMAVkZ"><rect width="1024" height="768"/></clipPath></defs><g clip-path="url(#_clipPath_nfOe6c5bApSRGwsnJDZguNm3zSkMAVkZ)"><g><path d=" M 745.372 187.543 C 742.733 184.633 738.986 182.973 735.058 182.97 L 289.001 182.97 C 281.303 182.936 275.034 189.149 275 196.847 C 274.998 197.306 275.019 197.763 275.062 198.22 L 316.879 644.275 C 317.419 649.997 321.415 654.801 326.943 656.374 L 522.092 712.132 C 523.352 712.49 524.657 712.668 525.967 712.661 C 527.462 712.66 528.949 712.425 530.372 711.965 L 697.643 656.207 C 702.89 654.461 706.607 649.78 707.121 644.275 L 748.939 198.22 C 749.306 194.317 748.011 190.441 745.372 187.543 Z " fill="rgb(255,87,34)"/><path d=" M 519.027 601.148 C 517.734 601.14 516.448 600.952 515.207 600.59 L 417.633 572.712 C 412.844 571.349 409.145 567.533 407.931 562.703 L 393.992 506.945 C 391.956 499.521 396.324 491.852 403.748 489.816 C 411.172 487.78 418.842 492.148 420.878 499.572 C 420.935 499.78 420.986 499.988 421.033 500.198 L 433.021 548.149 L 518.72 572.627 L 589.699 548.958 L 601.184 433.875 L 393.574 433.875 C 386.512 433.932 380.524 428.698 379.634 421.692 L 365.694 310.179 C 364.725 302.542 370.128 295.565 377.765 294.594 C 378.385 294.515 379.009 294.477 379.633 294.483 L 644.479 294.483 C 652.177 294.483 658.418 300.724 658.418 308.422 C 658.418 316.121 652.177 322.362 644.479 322.362 L 395.414 322.362 L 405.868 405.997 L 616.602 405.997 C 624.3 405.958 630.572 412.168 630.611 419.867 C 630.613 420.355 630.59 420.844 630.542 421.33 L 616.602 560.723 C 616.061 566.189 612.361 570.828 607.151 572.572 L 523.516 600.45 C 522.065 600.919 520.551 601.155 519.027 601.148 Z " fill="rgb(250,250,250)"/><g clip-path="url(#_clipPath_Ad3uR0CLr1f8mb3QSQrb2rNInAWcvJbw)"><text transform="matrix(1.307,0,0,1.307,388.507,137.555)" style="font-family:'Orbitron';font-weight:900;font-size:64px;font-style:normal;font-variant-ligatures:none;letter-spacing:21;fill:#ffffff;stroke:none;">HTML</text></g><defs><clipPath id="_clipPath_Ad3uR0CLr1f8mb3QSQrb2rNInAWcvJbw"><rect x="0" y="0" width="275.859" height="73" transform="matrix(1.307,0,0,1.307,388.507,53)"/></clipPath></defs></g></g></svg>