<?xml version="1.0" encoding="UTF-8" standalone="no"?><!-- Generator: Gravit.io --><svg xmlns="http://www.w3.org/2000/svg" xmlns:xlink="http://www.w3.org/1999/xlink" style="isolation:isolate" viewBox="0 0 1024 768" width="1024pt" height="768pt"><defs><clipPath id="_clipPath_TUSY1ZXM0iJKeRJ7nr9Ih3gyPahizrhO"><rect width="1024" height="768"/></clipPath></defs><g clip-path="url(#_clipPath_TUSY1ZXM0iJKeRJ7nr9Ih3gyPahizrhO)"><g><g clip-path="url(#_clipPath_DufeMwHMk8R4jg85bGQrPxGOG9SSFXbJ)"><text transform="matrix(1.318,0,0,1.318,436.213,137.808)" style="font-family:'Orbitron';font-weight:900;font-size:64px;font-style:normal;font-variant-ligatures:none;letter-spacing:21;fill:#ffffff;stroke:none;">JS</text></g><defs><clipPath id="_clipPath_DufeMwHMk8R4jg85bGQrPxGOG9SSFXbJ"><rect x="0" y="0" width="125.632" height="73" transform="matrix(1.318,0,0,1.318,436.213,52.532)"/></clipPath></defs><g><path d=" M 747.361 185.876 C 744.698 182.941 740.92 181.267 736.958 181.265 L 287.102 181.265 C 279.338 181.23 273.015 187.496 272.981 195.26 C 272.979 195.723 273 196.184 273.043 196.644 L 315.217 646.499 C 315.761 652.27 319.792 657.115 325.367 658.702 L 522.178 714.934 C 523.448 715.295 524.765 715.475 526.086 715.468 C 527.593 715.467 529.093 715.229 530.528 714.765 L 699.224 658.533 C 704.516 656.772 708.265 652.051 708.783 646.499 L 750.957 196.644 C 751.328 192.71 750.02 188.801 747.361 185.876 Z " fill="rgb(255,193,7)"/><g><path d=" M 545.382 593.034 C 540.727 593.034 536.387 590.071 534.805 585.421 C 532.87 579.588 536.032 573.287 541.84 571.331 L 602.363 551.165 L 621.083 448.353 L 545.382 448.353 C 539.236 448.353 534.251 443.368 534.251 437.222 L 534.251 303.671 C 534.251 297.529 539.236 292.545 545.382 292.545 L 656.671 292.545 C 660.099 292.545 663.351 294.122 665.463 296.816 C 667.578 299.51 668.311 303.027 667.488 306.365 L 656.362 350.883 C 654.87 356.846 648.903 360.408 642.871 358.986 C 636.884 357.494 633.277 351.438 634.769 345.495 L 642.403 314.802 L 556.508 314.802 L 556.508 426.095 L 634.414 426.095 C 637.707 426.095 640.846 427.542 642.961 430.102 C 645.076 432.616 645.965 435.975 645.366 439.227 L 623.104 561.647 C 622.371 565.654 619.522 568.927 615.67 570.219 L 548.895 592.476 C 547.717 592.855 546.56 593.034 545.382 593.034 L 545.382 593.034 Z " fill="rgb(255,255,255)"/><path d=" M 500.863 593.034 C 499.84 593.034 498.813 592.899 497.79 592.586 L 419.888 570.329 C 415.878 569.196 412.874 565.898 412.031 561.802 L 400.9 506.157 C 399.677 500.126 403.594 494.273 409.646 493.071 C 415.369 491.803 421.511 495.74 422.737 501.817 L 432.531 550.786 L 489.733 567.145 L 489.733 314.802 L 367.313 314.802 C 361.171 314.802 356.182 309.817 356.182 303.671 C 356.182 297.529 361.171 292.545 367.313 292.545 L 500.863 292.545 C 507.005 292.545 511.994 297.529 511.994 303.671 L 511.994 581.903 C 511.994 585.396 510.368 588.693 507.564 590.784 C 505.603 592.276 503.244 593.034 500.863 593.034 L 500.863 593.034 Z " fill="rgb(255,255,255)"/></g></g></g></g></svg>