<?xml version="1.0" encoding="UTF-8" standalone="no"?><!-- Generator: Gravit.io --><svg xmlns="http://www.w3.org/2000/svg" xmlns:xlink="http://www.w3.org/1999/xlink" style="isolation:isolate" viewBox="0 0 1024 768" width="1024pt" height="768pt"><defs><clipPath id="_clipPath_uWHhoDSpVBXChwyvpg5ylQ7Oisll9b0q"><rect width="1024" height="768"/></clipPath></defs><g clip-path="url(#_clipPath_uWHhoDSpVBXChwyvpg5ylQ7Oisll9b0q)"><g><radialGradient id="_rgradient_0" fx="0.44188000000000005" fy="0.30179" cx="0.44188000000000005" cy="0.30179" r="0.30359" gradientTransform="matrix(610.35,0,0,610.35,206.825,78.825)" gradientUnits="userSpaceOnUse"><stop offset="0%" stop-opacity="1" style="stop-color:rgb(255,232,112)"/><stop offset="100%" stop-opacity="1" style="stop-color:rgb(255,204,51)"/></radialGradient><circle vector-effect="non-scaling-stroke" cx="512" cy="384" r="305.17499999999995" fill="url(#_rgradient_0)"/><path d=" M 398.513 497.249 C 400.182 474.837 407.811 457.433 418.54 441.459 C 433.084 420.001 453.349 406.888 478.383 400.689 C 496.503 396.159 512.715 393.06 532.266 389.007 C 542.041 386.623 552.293 383.762 561.829 380.185 C 589.486 368.741 599.023 348.237 604.506 332.025 C 609.99 315.812 609.751 294.593 609.751 294.593 L 657.912 350.383 C 654.812 367.549 650.282 386.861 641.699 402.358 C 633.593 416.902 622.149 426.677 607.844 434.783 C 587.578 446.466 566.598 452.426 543.948 456.002 C 530.835 458.148 516.768 460.771 503.655 463.632 C 474.33 470.307 455.733 489.381 449.773 518.706 C 447.866 527.766 445.243 552.562 445.243 552.562 L 398.513 497.249 L 398.513 497.249 Z " fill="rgb(0,0,0)"/></g></g></svg>