<?xml version="1.0" encoding="UTF-8" standalone="no"?><!-- Generator: Gravit.io --><svg xmlns="http://www.w3.org/2000/svg" xmlns:xlink="http://www.w3.org/1999/xlink" style="isolation:isolate" viewBox="0 0 1024 768" width="1024pt" height="768pt"><defs><clipPath id="_clipPath_sInV1X5CgAgaQCvVQHIM6886H310j4lu"><rect width="1024" height="768"/></clipPath></defs><g clip-path="url(#_clipPath_sInV1X5CgAgaQCvVQHIM6886H310j4lu)"><g><path d=" M 488.085 98.176 C 502.568 89.886 521.432 89.849 535.903 98.176 C 608.704 139.313 681.528 180.385 754.317 221.546 C 768.008 229.258 777.165 244.494 777.026 260.269 L 777.026 507.762 C 777.128 524.19 767.065 539.791 752.621 547.328 C 680.06 588.238 607.535 629.197 534.986 670.107 C 520.203 678.559 500.96 677.908 486.639 668.763 C 464.885 656.152 443.093 643.603 421.337 631.005 C 416.892 628.355 411.88 626.245 408.741 621.935 C 411.516 618.194 416.478 617.728 420.509 616.095 C 429.59 613.208 437.93 608.573 446.272 604.075 C 448.382 602.631 450.957 603.185 452.979 604.477 C 471.581 615.143 490.019 626.118 508.684 636.682 C 512.666 638.981 516.697 635.929 520.101 634.032 C 591.306 593.788 662.599 553.696 733.792 513.439 C 736.43 512.17 737.889 509.37 737.674 506.481 C 737.724 424.838 737.687 343.181 737.699 261.538 C 738.001 258.26 736.104 255.245 733.139 253.904 C 660.829 213.181 588.556 172.396 516.259 131.664 C 513.695 129.901 510.311 129.896 507.742 131.651 C 435.444 172.396 363.184 213.219 290.886 253.939 C 287.932 255.283 285.949 258.247 286.301 261.538 C 286.313 343.181 286.301 424.838 286.301 506.493 C 286.044 509.381 287.613 512.123 290.233 513.364 C 309.526 524.305 328.844 535.168 348.149 546.071 C 359.025 551.925 372.379 555.404 384.361 550.919 C 394.936 547.126 402.348 536.335 402.146 525.108 C 402.246 443.942 402.096 362.763 402.221 281.609 C 401.957 278.006 405.375 275.029 408.878 275.369 C 418.148 275.306 427.431 275.244 436.701 275.393 C 440.57 275.306 443.233 279.186 442.754 282.816 C 442.717 364.496 442.854 446.178 442.692 527.858 C 442.717 549.627 433.773 573.313 413.638 583.965 C 388.832 596.815 358.172 594.09 333.666 581.768 C 312.451 571.179 292.205 558.682 271.366 547.338 C 256.885 539.843 246.873 524.18 246.974 507.764 L 246.974 260.269 C 246.823 244.168 256.344 228.655 270.461 221.055 C 343.011 180.112 415.548 139.138 488.085 98.176 Z " fill="rgb(140,200,75)"/><path d=" M 551.377 269.616 C 583.018 267.58 616.892 268.41 645.366 283.998 C 667.411 295.943 679.633 321.013 680.022 345.505 C 679.406 348.808 675.953 350.631 672.799 350.404 C 663.619 350.391 654.436 350.529 645.256 350.342 C 641.361 350.491 639.098 346.901 638.609 343.458 C 635.971 331.739 629.58 320.133 618.55 314.481 C 601.619 306.003 581.987 306.43 563.524 306.607 C 550.045 307.322 535.552 308.489 524.133 316.415 C 515.366 322.419 512.703 334.539 515.832 344.3 C 518.782 351.309 526.872 353.57 533.492 355.655 C 571.624 365.628 612.033 364.635 649.437 377.76 C 664.923 383.111 680.072 393.513 685.373 409.727 C 692.306 431.458 689.267 457.433 673.806 474.878 C 661.268 489.235 643.007 497.048 624.793 501.292 C 600.564 506.695 575.419 506.832 550.813 504.434 C 527.675 501.796 503.598 495.717 485.736 479.952 C 470.462 466.69 463.002 446.026 463.743 426.082 C 463.92 422.714 467.273 420.365 470.5 420.642 C 479.745 420.567 488.99 420.542 498.235 420.655 C 501.927 420.39 504.665 423.582 504.854 427.062 C 506.56 438.227 510.756 449.946 520.492 456.565 C 539.282 468.687 562.858 467.857 584.373 468.196 C 602.197 467.406 622.206 467.167 636.751 455.386 C 644.426 448.666 646.699 437.424 644.625 427.753 C 642.379 419.587 633.837 415.782 626.501 413.294 C 588.858 401.387 547.998 405.707 510.719 392.241 C 495.584 386.893 480.949 376.78 475.135 361.232 C 467.021 339.226 470.739 312.007 487.82 295.15 C 504.476 278.383 528.518 271.926 551.377 269.614 L 551.377 269.616 Z " fill="rgb(140,200,75)"/></g></g></svg>