<?xml version="1.0" encoding="UTF-8" standalone="no"?><!-- Generator: Gravit.io --><svg xmlns="http://www.w3.org/2000/svg" xmlns:xlink="http://www.w3.org/1999/xlink" style="isolation:isolate" viewBox="0 0 1024 768" width="1024pt" height="768pt"><defs><clipPath id="_clipPath_gTIymRuckOcP0tR1hwBpevt9dESYXMYB"><rect width="1024" height="768"/></clipPath></defs><g clip-path="url(#_clipPath_gTIymRuckOcP0tR1hwBpevt9dESYXMYB)"><g><path d=" M 203.75 264.125 L 820.25 264.125 L 820.25 469.625 L 512 469.625 L 512 503.875 L 375 503.875 L 375 469.625 L 203.75 469.625 L 203.75 264.125 Z  M 238 435.375 L 306.5 435.375 L 306.5 332.625 L 340.75 332.625 L 340.75 435.375 L 375 435.375 L 375 298.375 L 238 298.375 L 238 435.375 Z  M 409.25 298.375 L 409.25 469.625 L 477.75 469.625 L 477.75 435.375 L 546.25 435.375 L 546.25 298.375 L 409.25 298.375 Z  M 477.75 332.625 L 512 332.625 L 512 401.125 L 477.75 401.125 L 477.75 332.625 Z  M 580.5 298.375 L 580.5 435.375 L 649 435.375 L 649 332.625 L 683.25 332.625 L 683.25 435.375 L 717.5 435.375 L 717.5 332.625 L 751.75 332.625 L 751.75 435.375 L 786 435.375 L 786 298.375 L 580.5 298.375 Z " fill="rgb(203,56,55)"/><path d=" M 238 435.375 L 306.5 435.375 L 306.5 332.625 L 340.75 332.625 L 340.75 435.375 L 375 435.375 L 375 298.375 L 238 298.375 L 238 435.375 Z " fill="rgb(255,255,255)"/><path d=" M 409.25 298.375 L 409.25 469.625 L 477.75 469.625 L 477.75 435.375 L 546.25 435.375 L 546.25 298.375 L 409.25 298.375 Z  M 512 401.125 L 477.75 401.125 L 477.75 332.625 L 512 332.625 L 512 401.125 Z " fill="rgb(255,255,255)"/><path d=" M 580.5 298.375 L 580.5 435.375 L 649 435.375 L 649 332.625 L 683.25 332.625 L 683.25 435.375 L 717.5 435.375 L 717.5 332.625 L 751.75 332.625 L 751.75 435.375 L 786 435.375 L 786 298.375 L 580.5 298.375 Z " fill="rgb(255,255,255)"/></g></g></svg>