<svg width="116" height="112" viewBox="0 0 116 112" fill="none" xmlns="http://www.w3.org/2000/svg">
<path d="M99.1144 50.5354C98.7386 43.9719 98.9968 26.6409 103.036 9.82477" stroke="#FF2A52" stroke-width="3"/>
<path d="M99.0658 61.9036C99.5099 68.4628 101.923 85.6269 108.024 101.81" stroke="#FF2A52" stroke-width="3"/>
<path d="M107.477 5.88615C107.458 7.46329 106.131 8.78437 104.442 8.76365C102.752 8.74293 101.458 7.38971 101.478 5.81257C101.497 4.23542 102.824 2.91435 104.513 2.93507C106.203 2.95579 107.497 4.309 107.477 5.88615Z" fill="#FF2A52" stroke="#FF2A52" stroke-width="4"/>
<path d="M112.921 105.165C112.706 103.602 111.225 102.456 109.551 102.687C107.878 102.918 106.762 104.422 106.978 105.984C107.193 107.547 108.674 108.693 110.348 108.462C112.021 108.231 113.137 106.727 112.921 105.165Z" fill="#FF2A52" stroke="#FF2A52" stroke-width="4"/>
<circle cx="53.9175" cy="58.4695" r="45" stroke="#FF2A52" stroke-width="4"/>
<rect x="92.888" y="52.179" width="12.2129" height="12.4322" transform="rotate(0.70265 92.888 52.179)" fill="white" stroke="#FF2A52" stroke-width="4"/>
<rect x="47.888" y="7.17899" width="12.2129" height="12.4322" transform="rotate(0.70265 47.888 7.17899)" fill="white" stroke="#FF2A52" stroke-width="4"/>
<rect x="47.888" y="97.179" width="12.2129" height="12.4322" transform="rotate(0.70265 47.888 97.179)" fill="white" stroke="#FF2A52" stroke-width="4"/>
<rect x="2.83327" y="52.179" width="12.2129" height="12.4322" transform="rotate(0.70265 2.83327 52.179)" fill="white" stroke="#FF2A52" stroke-width="4"/>
</svg>
