<?xml version="1.0" encoding="UTF-8" standalone="no"?><!-- Generator: Gravit.io --><svg xmlns="http://www.w3.org/2000/svg" xmlns:xlink="http://www.w3.org/1999/xlink" style="isolation:isolate" viewBox="0 0 420 315" width="420pt" height="315pt"><defs><clipPath id="_clipPath_Odk4WcoBjW1Yxp0O09IixGlCmijZQ5Su"><rect width="420" height="315"/></clipPath></defs><g clip-path="url(#_clipPath_Odk4WcoBjW1Yxp0O09IixGlCmijZQ5Su)"><clipPath id="_clipPath_xiHBb4hsVMK1PW3lP8F1afab8EEOg2pL"><rect x="0" y="0" width="420" height="315" transform="matrix(1,0,0,1,0,0)" fill="rgb(255,255,255)"/></clipPath><g clip-path="url(#_clipPath_xiHBb4hsVMK1PW3lP8F1afab8EEOg2pL)"><g><g><clipPath id="_clipPath_qwVGMTgMCxji6DtnGB97QtT6UETfh9Uq"><rect x="155.175" y="21.119" width="109.65" height="39.583" transform="matrix(1,0,0,1,0,0)" fill="rgb(255,255,255)"/></clipPath><g clip-path="url(#_clipPath_qwVGMTgMCxji6DtnGB97QtT6UETfh9Uq)"><g><g clip-path="url(#_clipPath_loAGt44sOs4mjdzJwJ2LhIL2NO8OCTPK)"><text transform="matrix(0.542,0,0,0.542,155.175,56.205)" style="font-family:'Orbitron';font-weight:900;font-size:64px;font-style:normal;font-variant-ligatures:none;fill:#FFFFFF;stroke:none;">CSS</text></g><defs><clipPath id="_clipPath_loAGt44sOs4mjdzJwJ2LhIL2NO8OCTPK"><rect x="0" y="0" width="161" height="80.256" transform="matrix(0.542,0,0,0.542,155.175,21.12)"/></clipPath></defs></g></g><path d=" M 306.837 75.981 C 305.742 74.773 304.187 74.084 302.557 74.083 L 117.468 74.083 C 114.273 74.069 111.672 76.647 111.658 79.841 C 111.656 80.032 111.665 80.222 111.683 80.411 L 129.035 265.5 C 129.259 267.875 130.917 269.868 133.211 270.521 L 214.188 293.657 C 214.71 293.806 215.252 293.879 215.796 293.877 C 216.416 293.876 217.033 293.779 217.623 293.588 L 287.032 270.452 C 289.209 269.727 290.752 267.785 290.965 265.5 L 308.317 80.411 C 308.469 78.792 307.931 77.184 306.837 75.981 Z " fill="rgb(33,150,243)"/><g><path d=" M 215.796 247.605 C 215.26 247.602 214.727 247.524 214.211 247.374 L 173.723 235.806 C 171.736 235.24 170.201 233.657 169.697 231.653 L 163.913 208.516 C 163.068 205.436 164.881 202.253 167.961 201.408 C 171.042 200.564 174.225 202.376 175.069 205.457 C 175.093 205.543 175.115 205.629 175.134 205.717 L 180.108 225.613 L 215.796 235.816 L 250.962 225.764 L 261.373 131.935 L 157.955 131.935 C 154.761 131.935 152.17 129.345 152.17 126.151 C 152.17 122.956 154.761 120.367 157.955 120.367 L 267.852 120.367 C 271.046 120.347 273.651 122.921 273.671 126.115 C 273.672 126.34 273.66 126.564 273.635 126.787 L 262.068 230.9 C 261.805 233.231 260.16 235.173 257.903 235.816 L 217.414 247.384 C 216.889 247.535 216.343 247.609 215.796 247.605 Z " fill="rgb(250,250,250)"/><path d=" M 262.069 178.197 L 163.74 178.197 C 160.546 178.197 157.956 175.607 157.956 172.412 C 157.956 169.218 160.546 166.628 163.74 166.628 L 262.069 166.628 C 265.263 166.628 267.853 169.218 267.853 172.412 C 267.853 175.607 265.263 178.197 262.069 178.197 Z " fill="rgb(250,250,250)"/></g></g></g></g></g></svg>