<?xml version="1.0" encoding="UTF-8" standalone="no"?><!-- Generator: Gravit.io --><svg xmlns="http://www.w3.org/2000/svg" xmlns:xlink="http://www.w3.org/1999/xlink" style="isolation:isolate" viewBox="0 0 1024 768" width="1024pt" height="768pt"><defs><clipPath id="_clipPath_XcceEqnVTWyQKV782waw3bPx2Wciz8M2"><rect width="1024" height="768"/></clipPath></defs><g clip-path="url(#_clipPath_XcceEqnVTWyQKV782waw3bPx2Wciz8M2)"><g><path d=" M 412 684 C 467.2 684 512 639.2 512 584 L 512 484 L 412 484 C 356.8 484 312 528.8 312 584 C 312 639.2 356.8 684 412 684 Z " fill="rgb(10,207,131)"/><path d=" M 312 384 C 312 328.8 356.8 284 412 284 L 512 284 L 512 484 L 412 484 C 356.8 484 312 439.2 312 384 Z " fill="rgb(162,89,255)"/><path d=" M 312 184 C 312 128.8 356.8 84 412 84 L 512 84 L 512 284 L 412 284 C 356.8 284 312 239.2 312 184 Z " fill="rgb(242,78,30)"/><path d=" M 512 84 L 612 84 C 667.2 84 712 128.8 712 184 C 712 239.2 667.2 284 612 284 L 512 284 L 512 84 Z " fill="rgb(255,114,98)"/><path d=" M 712 384 C 712 439.2 667.2 484 612 484 C 556.8 484 512 439.2 512 384 C 512 328.8 556.8 284 612 284 C 667.2 284 712 328.8 712 384 Z " fill="rgb(26,188,254)"/></g></g></svg>