<?xml version="1.0" encoding="UTF-8" standalone="no"?><!-- Generator: Gravit.io --><svg xmlns="http://www.w3.org/2000/svg" xmlns:xlink="http://www.w3.org/1999/xlink" style="isolation:isolate" viewBox="0 0 1024 768" width="1024pt" height="768pt"><defs><clipPath id="_clipPath_vwZbj8LeTNvt0Qt30S9ARaMPg4YxAw7a"><rect width="1024" height="768"/></clipPath></defs><g clip-path="url(#_clipPath_vwZbj8LeTNvt0Qt30S9ARaMPg4YxAw7a)"><g><g><path d=" M 752.891 181.214 C 750.166 178.21 746.299 176.496 742.244 176.494 L 281.817 176.494 C 273.87 176.459 267.4 182.871 267.365 190.818 C 267.362 191.291 267.383 191.763 267.428 192.234 L 310.593 652.66 C 311.15 658.567 315.275 663.526 320.981 665.15 L 522.417 722.704 C 523.717 723.073 525.065 723.257 526.417 723.25 C 527.96 723.248 529.495 723.006 530.964 722.531 L 703.624 664.977 C 709.04 663.175 712.877 658.343 713.407 652.66 L 756.572 192.234 C 756.951 188.206 755.615 184.205 752.891 181.214 Z " fill="rgb(255,87,34)"/><path d=" M 526.419 608.144 C 525.085 608.136 523.758 607.941 522.476 607.568 L 421.759 578.791 C 416.815 577.385 412.998 573.446 411.745 568.46 L 397.356 510.906 C 395.254 503.243 399.764 495.327 407.427 493.225 C 415.09 491.123 423.007 495.633 425.108 503.296 C 425.168 503.51 425.22 503.725 425.269 503.942 L 437.642 553.437 L 526.102 578.704 L 599.368 554.272 L 611.224 435.482 L 396.924 435.482 C 389.635 435.54 383.454 430.138 382.536 422.906 L 368.147 307.8 C 367.146 299.917 372.724 292.715 380.607 291.713 C 381.246 291.632 381.891 291.593 382.534 291.599 L 655.913 291.599 C 663.859 291.599 670.302 298.041 670.302 305.987 C 670.302 313.934 663.859 320.376 655.913 320.376 L 398.824 320.376 L 409.615 406.706 L 627.138 406.706 C 635.084 406.666 641.558 413.076 641.598 421.022 C 641.601 421.527 641.577 422.031 641.527 422.533 L 627.138 566.417 C 626.58 572.059 622.761 576.848 617.383 578.647 L 531.053 607.423 C 529.556 607.908 527.992 608.152 526.419 608.144 Z " fill="rgb(250,250,250)"/></g><g clip-path="url(#_clipPath_y5m8h1yJMxDGmBnvDtmsk0BFTDlqgPLe)"><text transform="matrix(1.349,0,0,1.349,325.946,132.03)" style="font-family:'Orbitron';font-weight:900;font-size:64px;font-style:normal;font-variant-ligatures:none;letter-spacing:21;fill:#000000;stroke:none;">HTML</text></g><defs><clipPath id="_clipPath_y5m8h1yJMxDGmBnvDtmsk0BFTDlqgPLe"><rect x="0" y="0" width="275.859" height="73" transform="matrix(1.349,0,0,1.349,325.946,44.75)"/></clipPath></defs></g></g></svg>