<?xml version="1.0" encoding="UTF-8" standalone="no"?><!-- Generator: Gravit.io --><svg xmlns="http://www.w3.org/2000/svg" xmlns:xlink="http://www.w3.org/1999/xlink" style="isolation:isolate" viewBox="0 0 420 315" width="420pt" height="315pt"><defs><clipPath id="_clipPath_guvC83zH38eTUAnx5b6TrI19xDAMepLV"><rect width="420" height="315"/></clipPath></defs><g clip-path="url(#_clipPath_guvC83zH38eTUAnx5b6TrI19xDAMepLV)"><g><rect x="0" y="0" width="420" height="315" transform="matrix(1,0,0,1,0,0)" fill="none"/><g><g><path d=" M 305.719 76.922 C 304.637 75.728 303.1 75.048 301.489 75.046 L 118.536 75.046 C 115.378 75.032 112.807 77.581 112.793 80.738 C 112.792 80.926 112.801 81.114 112.818 81.301 L 129.97 264.253 C 130.191 266.6 131.83 268.571 134.098 269.216 L 214.139 292.085 C 214.656 292.232 215.191 292.305 215.729 292.302 C 216.342 292.302 216.952 292.206 217.535 292.017 L 286.143 269.147 C 288.295 268.431 289.819 266.511 290.03 264.253 L 307.182 81.301 C 307.333 79.7 306.801 78.111 305.719 76.922 Z " fill="rgb(255,87,34)"/><path d=" M 212.882 246.565 C 212.352 246.561 211.824 246.484 211.315 246.336 L 171.295 234.901 C 169.331 234.342 167.813 232.777 167.315 230.796 L 161.598 207.927 C 160.763 204.882 162.555 201.736 165.6 200.901 C 168.645 200.066 171.791 201.858 172.626 204.903 C 172.649 204.988 172.67 205.073 172.689 205.159 L 177.606 224.827 L 212.756 234.867 L 241.869 225.159 L 246.579 177.957 L 161.427 177.957 C 158.53 177.98 156.074 175.833 155.709 172.96 L 149.992 127.222 C 149.594 124.089 151.81 121.228 154.943 120.83 C 155.197 120.797 155.453 120.782 155.709 120.784 L 264.337 120.784 C 267.494 120.784 270.054 123.344 270.054 126.501 C 270.054 129.659 267.494 132.219 264.337 132.219 L 162.182 132.219 L 166.469 166.522 L 252.903 166.522 C 256.061 166.506 258.633 169.053 258.649 172.211 C 258.65 172.411 258.64 172.612 258.621 172.811 L 252.903 229.984 C 252.681 232.226 251.164 234.129 249.027 234.844 L 214.723 246.278 C 214.128 246.471 213.507 246.567 212.882 246.565 Z " fill="rgb(250,250,250)"/><clipPath id="_clipPath_4GR2UvFkP35mciuHpBbGFY9dvl7lMsEM"><rect x="136.071" y="21.738" width="147.881" height="39.133" transform="matrix(1,0,0,1,0,0)" fill="rgb(255,255,255)"/></clipPath><g clip-path="url(#_clipPath_4GR2UvFkP35mciuHpBbGFY9dvl7lMsEM)"><g><g clip-path="url(#_clipPath_P84AAbQBPt541gVMqG7zEJTGjKwunlGi)"><text transform="matrix(0.536,0,0,0.536,136.071,56.419)" style="font-family:'Orbitron';font-weight:900;font-size:64px;font-style:normal;font-variant-ligatures:none;fill:#FFFFFF;stroke:none;">HTML</text></g><defs><clipPath id="_clipPath_P84AAbQBPt541gVMqG7zEJTGjKwunlGi"><rect x="0" y="0" width="215" height="80.256" transform="matrix(0.536,0,0,0.536,136.071,21.733)"/></clipPath></defs></g></g></g></g></g></g></svg>