<?xml version="1.0" encoding="UTF-8" standalone="no"?><!-- Generator: Gravit.io --><svg xmlns="http://www.w3.org/2000/svg" xmlns:xlink="http://www.w3.org/1999/xlink" style="isolation:isolate" viewBox="0 0 420 315" width="420pt" height="315pt"><defs><clipPath id="_clipPath_nCWEHvCfRr0LfKbug9oYe3QaxnABxgtj"><rect width="420" height="315"/></clipPath></defs><g clip-path="url(#_clipPath_nCWEHvCfRr0LfKbug9oYe3QaxnABxgtj)"><clipPath id="_clipPath_cadrfxXN3X08lSWys1BYOHAZ5GUzsvw3"><rect x="0" y="0" width="420" height="315" transform="matrix(1,0,0,1,0,0)" fill="rgb(255,255,255)"/></clipPath><g clip-path="url(#_clipPath_cadrfxXN3X08lSWys1BYOHAZ5GUzsvw3)"><g><g><clipPath id="_clipPath_zwFwuJ1vQO9J53E6NYYIRmTY50njdoHt"><rect x="176.043" y="21.546" width="67.915" height="39.463" transform="matrix(1,0,0,1,0,0)" fill="rgb(255,255,255)"/></clipPath><g clip-path="url(#_clipPath_zwFwuJ1vQO9J53E6NYYIRmTY50njdoHt)"><g><g clip-path="url(#_clipPath_9h5mgdwEzp2Vvqoqm306O3o3pIeT56B2)"><text transform="matrix(0.541,0,0,0.541,176.043,56.523)" style="font-family:'Orbitron';font-weight:900;font-size:64px;font-style:normal;font-variant-ligatures:none;fill:#FFFFFF;stroke:none;">JS</text></g><defs><clipPath id="_clipPath_9h5mgdwEzp2Vvqoqm306O3o3pIeT56B2"><rect x="0" y="0" width="105" height="80.256" transform="matrix(0.541,0,0,0.541,176.043,21.545)"/></clipPath></defs></g></g><g><path d=" M 306.535 76.238 C 305.443 75.034 303.893 74.348 302.268 74.347 L 117.757 74.347 C 114.572 74.333 111.979 76.903 111.965 80.087 C 111.964 80.277 111.973 80.466 111.99 80.655 L 129.288 265.166 C 129.511 267.533 131.165 269.52 133.451 270.171 L 214.175 293.235 C 214.695 293.383 215.236 293.457 215.777 293.454 C 216.396 293.453 217.011 293.356 217.599 293.165 L 286.791 270.101 C 288.962 269.379 290.499 267.443 290.712 265.166 L 308.01 80.655 C 308.162 79.041 307.625 77.438 306.535 76.238 Z " fill="rgb(255,193,7)"/><g><path d=" M 223.692 243.237 C 221.783 243.237 220.002 242.021 219.354 240.114 C 218.56 237.722 219.857 235.137 222.239 234.335 L 247.063 226.064 L 254.741 183.895 L 223.692 183.895 C 221.171 183.895 219.126 181.85 219.126 179.329 L 219.126 124.553 C 219.126 122.033 221.171 119.989 223.692 119.989 L 269.338 119.989 C 270.744 119.989 272.078 120.636 272.944 121.741 C 273.811 122.846 274.112 124.288 273.774 125.658 L 269.211 143.917 C 268.599 146.363 266.152 147.824 263.678 147.24 C 261.222 146.628 259.743 144.144 260.354 141.707 L 263.486 129.118 L 228.255 129.118 L 228.255 174.766 L 260.209 174.766 C 261.56 174.766 262.847 175.359 263.714 176.409 C 264.582 177.44 264.947 178.818 264.701 180.152 L 255.57 230.363 C 255.269 232.007 254.101 233.349 252.521 233.879 L 225.133 243.008 C 224.65 243.163 224.175 243.237 223.692 243.237 L 223.692 243.237 Z " fill="rgb(255,255,255)"/><path d=" M 205.432 243.237 C 205.013 243.237 204.591 243.181 204.172 243.053 L 172.22 233.924 C 170.575 233.459 169.343 232.107 168.997 230.427 L 164.432 207.603 C 163.93 205.13 165.537 202.729 168.019 202.236 C 170.366 201.716 172.885 203.331 173.388 205.823 L 177.405 225.908 L 200.867 232.618 L 200.867 129.118 L 150.656 129.118 C 148.137 129.118 146.09 127.073 146.09 124.553 C 146.09 122.033 148.137 119.989 150.656 119.989 L 205.432 119.989 C 207.951 119.989 209.998 122.033 209.998 124.553 L 209.998 238.671 C 209.998 240.104 209.331 241.456 208.181 242.314 C 207.376 242.926 206.409 243.237 205.432 243.237 L 205.432 243.237 Z " fill="rgb(255,255,255)"/></g></g></g></g></g></g></svg>