<?xml version="1.0" encoding="UTF-8" standalone="no"?><!-- Generator: Gravit.io --><svg xmlns="http://www.w3.org/2000/svg" xmlns:xlink="http://www.w3.org/1999/xlink" style="isolation:isolate" viewBox="0 0 1024 768" width="1024pt" height="768pt"><defs><clipPath id="_clipPath_RoRyUNwrFaabyH01GVuqjvsZWhF7Jrr3"><rect width="1024" height="768"/></clipPath></defs><g clip-path="url(#_clipPath_RoRyUNwrFaabyH01GVuqjvsZWhF7Jrr3)"><g><g clip-path="url(#_clipPath_Y2IVnN447izQMfpVzvkjQ4FKkv8NzWwI)"><text transform="matrix(1.349,0,0,1.349,427.267,132.022)" style="font-family:'Orbitron';font-weight:900;font-size:64px;font-style:normal;font-variant-ligatures:none;letter-spacing:21;fill:#000000;stroke:none;">JS</text></g><defs><clipPath id="_clipPath_Y2IVnN447izQMfpVzvkjQ4FKkv8NzWwI"><rect x="0" y="0" width="125.632" height="73" transform="matrix(1.349,0,0,1.349,427.267,44.743)"/></clipPath></defs><g><path d=" M 752.891 181.221 C 750.166 178.217 746.299 176.503 742.244 176.501 L 281.817 176.501 C 273.87 176.466 267.4 182.878 267.365 190.825 C 267.362 191.298 267.383 191.77 267.428 192.241 L 310.593 652.667 C 311.15 658.574 315.275 663.533 320.981 665.157 L 522.417 722.711 C 523.717 723.08 525.065 723.264 526.417 723.257 C 527.96 723.256 529.495 723.013 530.964 722.538 L 703.624 664.984 C 709.04 663.182 712.877 658.35 713.407 652.667 L 756.572 192.241 C 756.951 188.215 755.613 184.214 752.891 181.221 Z " fill="rgb(255,193,7)"/><g><path d=" M 546.166 597.946 C 541.402 597.946 536.96 594.913 535.341 590.154 C 533.36 584.184 536.597 577.735 542.541 575.733 L 604.487 555.093 L 623.646 449.865 L 546.166 449.865 C 539.876 449.865 534.774 444.763 534.774 438.473 L 534.774 301.783 C 534.774 295.497 539.876 290.395 546.166 290.395 L 660.071 290.395 C 663.579 290.395 666.908 292.01 669.069 294.767 C 671.234 297.524 671.985 301.124 671.142 304.541 L 659.754 350.105 C 658.227 356.208 652.12 359.854 645.947 358.398 C 639.819 356.871 636.127 350.673 637.654 344.591 L 645.467 313.176 L 557.554 313.176 L 557.554 427.085 L 637.291 427.085 C 640.661 427.085 643.873 428.565 646.038 431.185 C 648.203 433.759 649.113 437.196 648.499 440.525 L 625.715 565.822 C 624.964 569.922 622.048 573.272 618.106 574.594 L 549.762 597.374 C 548.556 597.762 547.372 597.946 546.166 597.946 L 546.166 597.946 Z " fill="rgb(255,255,255)"/><path d=" M 500.602 597.946 C 499.555 597.946 498.504 597.808 497.456 597.487 L 417.724 574.707 C 413.619 573.547 410.545 570.173 409.681 565.98 L 398.289 509.028 C 397.038 502.854 401.047 496.864 407.241 495.634 C 413.098 494.336 419.384 498.366 420.64 504.585 L 430.664 554.705 L 489.21 571.449 L 489.21 313.176 L 363.913 313.176 C 357.626 313.176 352.52 308.074 352.52 301.783 C 352.52 295.497 357.626 290.395 363.913 290.395 L 500.602 290.395 C 506.888 290.395 511.994 295.497 511.994 301.783 L 511.994 586.554 C 511.994 590.129 510.33 593.503 507.46 595.643 C 505.453 597.17 503.038 597.946 500.602 597.946 L 500.602 597.946 Z " fill="rgb(255,255,255)"/></g></g></g></g></svg>