<?xml version="1.0" encoding="UTF-8" standalone="no"?><!-- Generator: Gravit.io --><svg xmlns="http://www.w3.org/2000/svg" xmlns:xlink="http://www.w3.org/1999/xlink" style="isolation:isolate" viewBox="0 0 1024 768" width="1024pt" height="768pt"><defs><clipPath id="_clipPath_uJT699I9c3o1wCzzxCFrUca2ejo3r37D"><rect width="1024" height="768"/></clipPath></defs><g clip-path="url(#_clipPath_uJT699I9c3o1wCzzxCFrUca2ejo3r37D)"><g><path d=" M 353.395 554.546 L 329.819 554.546 C 328.985 514.752 326.689 477.34 322.935 442.284 L 322.726 442.284 L 286.831 554.546 L 268.882 554.546 L 233.201 442.284 L 232.996 442.284 C 230.349 475.941 228.682 513.362 227.989 554.546 L 206.5 554.546 C 207.885 504.465 211.366 457.513 216.928 413.687 L 246.148 413.687 L 280.157 517.189 L 280.367 517.189 L 314.585 413.687 L 342.543 413.687 C 348.666 465.021 352.283 511.977 353.395 554.546 M 455.639 450.621 C 446.04 502.711 433.375 540.56 417.658 564.186 C 405.412 582.372 391.995 591.475 377.385 591.475 C 373.49 591.475 368.684 590.299 362.989 587.967 L 362.989 575.407 C 365.773 575.807 369.039 576.035 372.793 576.035 C 379.618 576.035 385.103 574.158 389.285 570.395 C 394.287 565.812 396.788 560.66 396.788 554.96 C 396.788 551.052 394.838 543.061 390.948 530.961 L 365.076 450.616 L 388.237 450.616 L 406.806 510.706 C 410.979 524.351 412.719 533.877 412.022 539.302 C 422.177 512.182 429.27 482.611 433.311 450.612 L 455.639 450.612 L 455.639 450.621 L 455.639 450.621 Z " fill="rgb(93,135,161)"/><path d=" M 769.46 554.546 L 702.491 554.546 L 702.491 413.687 L 725.019 413.687 L 725.019 537.207 L 769.46 537.207 L 769.46 554.546 Z  M 684.96 557.949 L 659.066 545.17 C 661.362 543.284 663.558 541.243 665.535 538.879 C 676.541 525.95 682.031 506.829 682.031 481.504 C 682.031 434.903 663.744 411.592 627.157 411.592 C 609.217 411.592 595.222 417.505 585.213 429.336 C 574.215 442.275 568.726 461.327 568.726 486.515 C 568.726 511.276 573.591 529.439 583.327 540.961 C 592.233 551.398 605.659 556.623 623.613 556.623 C 630.31 556.623 636.456 555.803 642.055 554.15 L 675.767 573.776 L 684.96 557.949 Z  M 601.076 526.36 C 595.372 517.184 592.52 502.451 592.52 482.137 C 592.52 446.671 603.294 428.917 624.866 428.917 C 636.141 428.917 644.405 433.163 649.69 441.637 C 655.385 450.826 658.25 465.427 658.25 485.458 C 658.25 521.216 647.467 539.097 625.909 539.097 C 614.629 539.102 606.365 534.87 601.076 526.36 M 558.908 515.503 C 558.908 527.448 554.525 537.248 545.769 544.924 C 537.004 552.569 525.25 556.4 510.522 556.4 C 496.745 556.4 483.388 551.999 470.459 543.243 L 476.513 531.148 C 487.638 536.719 497.711 539.489 506.754 539.489 C 515.241 539.489 521.875 537.608 526.685 533.877 C 531.492 530.132 534.357 524.879 534.357 518.237 C 534.357 509.868 528.521 502.715 517.815 496.725 C 507.943 491.303 488.199 479.969 488.199 479.969 C 477.497 472.169 472.14 463.796 472.14 450.001 C 472.14 438.584 476.135 429.368 484.13 422.357 C 492.135 415.318 502.463 411.81 515.123 411.81 C 528.198 411.81 540.084 415.314 550.79 422.248 L 545.359 434.348 C 536.202 430.457 527.164 428.512 518.248 428.512 C 511.027 428.512 505.451 430.247 501.574 433.733 C 497.665 437.204 495.255 441.646 495.255 447.095 C 495.255 455.422 501.214 462.666 512.212 468.775 C 522.216 474.206 542.453 485.736 542.453 485.736 C 553.427 493.522 558.908 501.818 558.908 515.503" fill="rgb(248,152,29)"/><path d=" M 797.742 366.508 C 784.12 366.162 773.574 367.533 764.722 371.278 C 762.166 372.299 758.103 372.299 757.747 375.529 C 759.127 376.895 759.287 379.1 760.485 380.986 C 762.526 384.39 766.084 388.968 769.332 391.355 C 772.899 394.089 776.48 396.795 780.234 399.177 C 786.854 403.273 794.357 405.656 800.808 409.738 C 804.566 412.111 808.302 415.182 812.065 417.737 C 813.915 419.1 815.099 421.309 817.5 422.161 L 817.5 421.642 C 816.297 420.111 815.956 417.897 814.776 416.193 L 809.664 411.264 C 804.726 404.631 798.589 398.84 791.97 394.084 C 786.521 390.33 774.603 385.228 772.394 378.95 L 772.048 378.604 C 775.792 378.253 780.234 376.895 783.792 375.852 C 789.582 374.326 794.863 374.672 800.803 373.146 C 803.537 372.463 806.247 371.606 808.99 370.763 L 808.99 369.228 C 805.91 366.162 803.714 362.089 800.475 359.192 C 791.81 351.707 782.261 344.386 772.394 338.258 C 767.109 334.846 760.312 332.65 754.686 329.748 C 752.658 328.723 749.242 328.217 748.048 326.514 C 744.996 322.769 743.278 317.84 741.064 313.407 C 736.144 304.054 731.365 293.676 727.119 283.786 C 724.048 277.152 722.181 270.528 718.436 264.392 C 700.896 235.463 681.849 217.942 652.574 200.744 C 646.282 197.163 638.797 195.637 630.802 193.76 L 618.032 193.086 C 615.308 191.892 612.579 188.653 610.201 187.122 C 600.488 180.999 575.482 167.728 568.338 185.25 C 563.737 196.325 575.145 207.213 579.063 212.83 C 581.955 216.73 585.705 221.167 587.728 225.595 C 588.926 228.488 589.263 231.559 590.461 234.616 C 593.185 242.105 595.732 250.438 599.313 257.426 C 601.181 260.989 603.217 264.733 605.604 267.959 C 606.971 269.845 609.349 270.679 609.868 273.754 C 607.495 277.143 607.308 282.259 605.946 286.514 C 599.823 305.744 602.215 329.566 610.893 343.698 C 613.609 347.953 620.087 357.319 628.752 353.73 C 636.424 350.668 634.724 340.969 636.929 332.463 C 637.435 330.409 637.102 329.06 638.123 327.712 L 638.123 328.044 C 640.496 332.805 642.893 337.393 645.093 342.167 C 650.373 350.5 659.567 359.183 667.225 364.955 C 671.302 368.035 674.532 373.301 679.639 375.182 L 679.639 374.672 L 679.302 374.672 C 678.268 373.146 676.755 372.463 675.398 371.278 C 672.327 368.212 668.929 364.467 666.546 361.069 C 659.412 351.534 653.098 340.978 647.494 330.085 C 644.752 324.801 642.387 319.024 640.178 313.749 C 639.148 311.712 639.148 308.642 637.44 307.617 C 634.879 311.357 631.148 314.596 629.28 319.179 C 626.041 326.509 625.704 335.525 624.501 344.901 L 623.832 345.229 C 618.41 343.866 616.524 338.258 614.465 333.498 C 609.367 321.407 608.511 301.999 612.934 288.05 C 614.119 284.483 619.244 273.248 617.198 269.85 C 616.173 266.592 612.766 264.738 610.898 262.173 C 608.702 258.948 606.297 254.866 604.766 251.285 C 600.684 241.759 598.629 231.203 594.233 221.682 C 592.178 217.245 588.611 212.652 585.723 208.566 C 582.479 203.974 578.912 200.739 576.347 195.295 C 575.5 193.423 574.311 190.361 575.673 188.325 C 576.006 186.958 576.698 186.448 578.056 186.106 C 580.261 184.243 586.561 186.612 588.771 187.637 C 595.08 190.188 600.356 192.571 605.622 196.143 C 608.005 197.851 610.561 201.085 613.618 201.937 L 617.198 201.937 C 622.633 203.122 628.761 202.265 633.877 203.805 C 642.893 206.703 651.061 210.953 658.387 215.541 C 680.678 229.677 699.06 249.763 711.47 273.754 C 713.506 277.663 714.372 281.243 716.231 285.321 C 719.816 293.667 724.249 302.177 727.807 310.345 C 731.383 318.341 734.791 326.505 739.898 333.147 C 742.444 336.718 752.677 338.591 757.264 340.463 C 760.658 341.989 765.943 343.347 769.004 345.219 C 774.795 348.787 780.562 352.882 786.006 356.805 C 788.717 358.846 797.236 363.101 797.742 366.508 M 624.141 218.611 C 621.792 218.587 619.449 218.875 617.176 219.468 L 617.176 219.809 L 617.504 219.809 C 618.875 222.529 621.258 224.415 622.957 226.789 C 624.328 229.518 625.517 232.224 626.861 234.948 L 627.189 234.611 C 629.59 232.912 630.784 230.187 630.784 226.101 C 629.749 224.898 629.59 223.723 628.729 222.529 C 627.727 220.825 625.517 219.978 624.141 218.611" fill="rgb(93,135,161)"/><path d=" M 813.951 554.523 L 817.477 554.523 L 817.477 537.266 L 812.188 537.266 L 807.874 549.043 L 803.186 537.266 L 798.093 537.266 L 798.093 554.523 L 801.423 554.523 L 801.423 541.393 L 801.61 541.393 L 806.521 554.523 L 809.058 554.523 L 813.951 541.393 L 813.951 554.523 Z  M 785.546 554.523 L 789.277 554.523 L 789.277 540.191 L 794.161 540.191 L 794.161 537.261 L 780.457 537.261 L 780.457 540.191 L 785.537 540.191 L 785.546 554.523 Z " fill="rgb(248,152,29)"/></g></g></svg>