<?xml version="1.0" encoding="UTF-8" standalone="no"?><!-- Generator: Gravit.io --><svg xmlns="http://www.w3.org/2000/svg" xmlns:xlink="http://www.w3.org/1999/xlink" style="isolation:isolate" viewBox="0 0 1024 768" width="1024pt" height="768pt"><defs><clipPath id="_clipPath_66bmU6LgCe3S8Vm7W5AGZHSvNotzXeWn"><rect width="1024" height="768"/></clipPath></defs><g clip-path="url(#_clipPath_66bmU6LgCe3S8Vm7W5AGZHSvNotzXeWn)"><g><path d=" M 779.5 384 C 779.5 400.181 778.059 416.024 775.308 431.407 C 752.936 556.532 643.556 651.5 512 651.5 C 412.883 651.5 326.355 597.596 280.149 517.499 C 268.87 497.966 260.005 476.883 253.934 454.642 C 247.776 432.14 244.5 408.446 244.5 384 C 244.5 236.264 364.264 116.5 512 116.5 C 633.936 116.5 736.809 198.082 769.029 309.645 C 775.843 333.251 779.5 358.2 779.5 384 Z " fill="rgb(143,158,209)"/><g><path d=" M 380.521 302.746 L 282.004 302.746 L 253.934 454.642 C 260.005 476.883 268.87 497.966 280.149 517.499 L 289.287 517.499 L 300.162 458.671 L 354.295 458.671 C 420.209 458.671 437.93 399.494 442.177 370.429 C 446.435 341.375 425.177 302.746 380.521 302.746 Z  M 394.813 375.33 C 392.4 391.807 380.226 425.358 342.864 425.358 L 306.32 425.358 L 322.654 336.952 L 359.853 336.952 C 396.113 336.952 397.226 358.855 394.813 375.33 Z " fill="rgb(242,242,242)"/><path d=" M 769.029 309.645 C 760.655 305.322 750.675 302.745 739.145 302.745 L 640.629 302.745 L 600.941 517.499 L 647.911 517.499 L 658.785 458.671 L 712.919 458.671 C 742.235 458.671 762.018 446.967 775.306 431.408 C 778.059 416.024 779.5 400.181 779.5 384 C 779.5 358.2 775.843 333.251 769.029 309.645 Z  M 753.438 375.33 C 751.025 391.807 738.85 425.358 701.477 425.358 L 664.944 425.358 L 681.278 336.952 L 718.478 336.952 C 754.737 336.952 755.85 358.855 753.438 375.33 Z " fill="rgb(242,242,242)"/><path d=" M 567.63 303.456 C 548.513 303.456 523.007 303.456 510.58 303.456 L 521.288 245.514 L 474.511 245.514 L 434.822 460.263 L 481.599 460.263 L 504.423 336.767 C 512.856 336.767 524.057 336.767 534.318 336.767 C 554.163 336.767 567.63 341.02 564.794 359.447 C 561.959 377.875 545.658 459.38 545.658 459.38 L 593.143 459.38 C 593.143 459.38 611.571 368.662 614.405 343.146 C 617.241 317.631 593.853 303.456 567.63 303.456 Z " fill="rgb(242,242,242)"/></g></g></g></svg>