<?xml version="1.0" encoding="UTF-8" standalone="no"?><!-- Generator: Gravit.io --><svg xmlns="http://www.w3.org/2000/svg" xmlns:xlink="http://www.w3.org/1999/xlink" style="isolation:isolate" viewBox="0 0 300 300" width="300pt" height="300pt"><defs><clipPath id="_clipPath_spdCquc9B26IKT7iaLJHl07dQnWvFu0j"><rect width="300" height="300"/></clipPath></defs><g clip-path="url(#_clipPath_spdCquc9B26IKT7iaLJHl07dQnWvFu0j)"><g><g><path d=" M 114.551 227.651 C 186.666 227.651 226.101 167.908 226.101 116.102 C 226.101 114.405 226.066 112.715 225.99 111.034 C 233.645 105.5 240.299 98.594 245.547 90.732 C 238.522 93.854 230.962 95.956 223.032 96.904 C 231.127 92.05 237.341 84.372 240.272 75.219 C 232.697 79.71 224.308 82.973 215.377 84.735 C 208.222 77.114 198.037 72.349 186.758 72.349 C 165.107 72.349 147.549 89.906 147.549 111.55 C 147.549 114.626 147.893 117.619 148.566 120.489 C 115.98 118.85 87.087 103.249 67.752 79.526 C 64.385 85.32 62.443 92.05 62.443 99.232 C 62.443 112.834 69.365 124.842 79.89 131.867 C 73.458 131.668 67.415 129.903 62.134 126.963 C 62.128 127.128 62.128 127.288 62.128 127.464 C 62.128 146.451 75.642 162.305 93.582 165.897 C 90.288 166.795 86.821 167.277 83.244 167.277 C 80.721 167.277 78.264 167.029 75.875 166.57 C 80.867 182.148 95.34 193.484 112.5 193.801 C 99.082 204.319 82.177 210.583 63.806 210.583 C 60.645 210.583 57.522 210.403 54.453 210.04 C 71.805 221.162 92.409 227.651 114.553 227.651" fill="rgb(29,161,242)"/></g><g><path d=" M 196.762 4.036 L 196.762 4.036 L 36.257 4.036 L 36.257 4.036 Q 21.897 4.036 11.901 13.89 L 11.901 13.89 L 11.901 13.89 Q 1.906 23.745 1.906 38.105 L 1.906 38.105 L 1.906 195.342 L 1.906 195.342 L 1.906 261.613 L 1.906 261.613 Q 1.906 275.973 11.76 285.969 L 11.76 285.969 L 11.76 285.969 Q 21.616 295.964 35.975 295.964 L 35.975 295.964 L 66.859 295.964 L 66.859 272.594 L 35.975 272.594 L 35.975 272.594 Q 31.47 272.594 28.232 269.356 L 28.232 269.356 L 28.232 269.356 Q 24.994 266.118 24.994 261.613 L 24.994 261.613 L 24.994 195.316 L 25.037 171.639 L 25.276 38.105 L 25.276 38.105 Q 25.276 33.6 28.514 30.362 L 28.514 30.362 L 28.514 30.362 Q 31.752 27.124 36.257 27.124 L 36.257 27.124 L 196.762 27.124 L 196.762 27.124 L 263.743 27.124 L 263.743 27.124 Q 268.248 27.124 271.486 30.362 L 271.486 30.362 L 271.486 30.362 Q 274.724 33.6 274.724 38.105 L 274.724 38.105 L 274.724 195.342 L 298.094 195.342 L 298.094 38.105 L 298.094 38.105 Q 298.094 23.745 288.099 13.89 L 288.099 13.89 L 288.099 13.89 Q 278.103 4.036 263.743 4.036 L 263.743 4.036 L 196.762 4.036 Z " fill-rule="evenodd" fill="rgb(29,161,242)"/></g></g></g></svg>