<?xml version="1.0" encoding="UTF-8" standalone="no"?><!-- Generator: Gravit.io --><svg xmlns="http://www.w3.org/2000/svg" xmlns:xlink="http://www.w3.org/1999/xlink" style="isolation:isolate" viewBox="0 0 1024 768" width="1024pt" height="768pt"><defs><clipPath id="_clipPath_hpZ2nxWCJgRlSAZvIEoQ0yuBdozUCMjF"><rect width="1024" height="768"/></clipPath></defs><g clip-path="url(#_clipPath_hpZ2nxWCJgRlSAZvIEoQ0yuBdozUCMjF)"><g><g><g><g><path d=" M 309.854 78.825 L 714.146 78.825 C 775.442 78.825 825 128.383 825 189.679 L 825 578.321 C 825 639.617 775.442 689.175 714.146 689.175 L 309.854 689.175 C 248.558 689.175 199 639.617 199 578.321 L 199 189.679 C 199 128.383 248.558 78.825 309.854 78.825 Z " fill="rgb(71,1,55)"/></g></g></g><g><g><path d=" M 528.172 239.238 L 449.922 368.35 L 533.388 505.287 C 533.91 506.331 534.171 507.374 533.91 508.417 C 533.649 509.461 532.606 508.678 531.041 508.939 L 471.31 508.939 C 467.137 508.939 464.267 508.678 462.442 506.07 C 456.964 495.115 451.226 484.421 445.748 473.466 C 440.271 462.772 434.272 451.817 428.012 440.601 C 421.752 429.385 415.492 418.169 409.232 406.692 L 408.71 406.692 C 403.233 417.908 397.233 429.124 391.234 440.34 C 385.235 451.556 379.236 462.772 373.498 473.727 C 367.498 484.682 361.499 495.897 355.5 506.592 C 354.457 509.2 352.37 509.461 349.501 509.461 L 292.118 509.461 C 291.074 509.461 290.292 509.983 290.292 508.678 C 290.031 507.635 290.292 506.592 290.813 505.809 L 371.933 372.784 L 292.9 238.977 C 292.118 237.933 291.857 236.89 292.378 236.368 C 292.9 235.586 293.943 235.325 294.987 235.325 L 354.196 235.325 C 355.5 235.325 356.804 235.586 357.848 235.847 C 358.891 236.368 359.673 237.151 360.456 238.194 C 365.412 249.41 371.15 260.626 377.149 271.842 C 383.409 283.058 389.408 294.013 395.929 304.967 C 402.189 315.923 407.927 326.877 413.405 338.093 L 413.927 338.093 C 419.404 326.617 425.142 315.401 430.881 304.446 C 436.619 293.491 442.618 282.536 448.617 271.581 C 454.617 260.626 460.355 249.41 466.093 238.716 C 466.354 237.673 466.876 236.629 467.658 236.107 C 468.702 235.586 469.745 235.325 471.049 235.586 L 526.085 235.586 C 527.389 235.325 528.693 236.107 528.954 237.412 C 529.215 237.673 528.693 238.716 528.172 239.238 L 528.172 239.238 Z " fill="rgb(255,97,246)"/><path d=" M 648.677 514.417 C 629.375 514.678 610.073 510.765 592.597 502.679 C 576.165 495.115 562.602 482.595 553.212 467.206 C 543.561 451.295 538.866 431.472 538.866 407.736 C 538.605 388.434 543.561 369.393 553.212 352.7 C 563.123 335.746 577.469 321.661 594.684 312.271 C 612.942 302.098 634.853 297.142 660.675 297.142 C 661.979 297.142 663.805 297.142 666.153 297.403 C 668.5 297.664 671.108 297.664 674.238 297.925 L 674.238 215.502 C 674.238 213.676 675.021 212.632 676.847 212.632 L 729.796 212.632 C 731.1 212.372 732.143 213.415 732.404 214.458 C 732.404 214.719 732.404 214.98 732.404 214.98 L 732.404 463.293 C 732.404 467.988 732.665 473.205 732.926 478.943 C 733.447 484.421 733.708 489.638 733.969 494.072 C 733.969 495.897 733.187 497.463 731.361 498.245 C 717.797 503.983 703.452 508.157 688.845 510.765 C 675.542 513.113 662.24 514.417 648.677 514.417 Z  M 674.238 462.25 L 674.238 347.483 C 671.891 346.962 669.543 346.44 667.196 346.179 C 664.327 345.918 661.458 345.658 658.588 345.658 C 648.416 345.658 638.243 347.744 629.114 352.439 C 620.246 356.873 612.682 363.394 606.943 371.741 C 601.205 380.088 598.336 391.303 598.336 404.867 C 598.075 413.996 599.64 423.125 602.77 431.733 C 605.378 438.775 609.291 445.035 614.508 450.252 C 619.463 454.947 625.463 458.598 632.244 460.685 C 639.287 463.033 646.59 464.076 653.893 464.076 C 657.806 464.076 661.458 463.815 664.848 463.554 C 668.239 463.815 671.108 463.293 674.238 462.25 Z " fill="rgb(255,97,246)"/></g></g></g></g></svg>